# xmcd
#
# Track frame offsets:
#	150
#	18210
#	40300
#	60315
#	80630
#	100927
#	122917
#	144145
#	165132
#	188777
#	209390
#	227567
#	249617
#	274157
#	293867
#
# Disc length: 4180 seconds
#
# Revision: 1
# Processed by: cddbd v1.5.1PL0 Copyright (c) Steve Scherf et al.
# Submitted via: CDex 1.50Beta5
#
DISCID=c710520f
DTITLE=Various Artist - NEW MUSIC BEST SELECTION  4
DYEAR=1900
DGENRE=New Age
TTITLE0=杉山清貴&オメガトライブ/ふたりの夏物語
TTITLE1=杉山清貴&オメガトライブ/君のハートはマリンブルー
TTITLE2=1986オメガトライブ/君は1000%
TTITLE3=1986オメガトライブ/Super Chance
TTITLE4=カルロス・トシキ&オメガトライブ/Down Town Mystery
TTITLE5=杉山清貴/さよならのオーシャン
TTITLE6=杉山清貴/僕の腕の中で
TTITLE7=林 哲司/モノクロームの夏
TTITLE8=林 哲司/ガラスの観覧車
TTITLE9=杉山清貴&オメガトライブ/SUMMER SUSPICION
TTITLE10=杉山清貴&オメガトライブ/アスファルト・レディー
TTITLE11=杉山清貴/風のLONELY WAY
TTITLE12=杉山清貴/最後のHoly Night
TTITLE13=因幡 晃/夕映えを待ちながら
TTITLE14=因幡 晃/忍 冬
EXTD=
EXTT0=
EXTT1=
EXTT2=
EXTT3=
EXTT4=
EXTT5=
EXTT6=
EXTT7=
EXTT8=
EXTT9=
EXTT10=
EXTT11=
EXTT12=
EXTT13=
EXTT14=
PLAYORDER=
